/* XPM */
static char * decal_multiping_status_xpm[] = {
"10 33 161 2",
"  	c None",
". 	c #6A6A6A",
"+ 	c #4A4A4A",
"@ 	c #3B3B3B",
"# 	c #535454",
"$ 	c #717171",
"% 	c #131313",
"& 	c #0C0C0C",
"* 	c #1C1C1C",
"= 	c #242524",
"- 	c #646363",
"; 	c #444444",
"> 	c #333233",
", 	c #2A2A2A",
"' 	c #322D2F",
") 	c #949393",
"! 	c #838282",
"~ 	c #5B5B5B",
"{ 	c #AAA9A9",
"] 	c #9A9A9A",
"^ 	c #7C7C7C",
"/ 	c #A5A4A5",
"( 	c #C2C2C2",
"_ 	c #8C8C8C",
": 	c #BDBDBD",
"< 	c #3F423A",
"[ 	c #444942",
"} 	c #6C7269",
"| 	c #1F241A",
"1 	c #161912",
"2 	c #1F2616",
"3 	c #2C3A1E",
"4 	c #566347",
"5 	c #91928B",
"6 	c #496134",
"7 	c #5A7738",
"8 	c #466324",
"9 	c #325215",
"0 	c #375219",
"a 	c #75855A",
"b 	c #617749",
"c 	c #CFDDB6",
"d 	c #C5DA9A",
"e 	c #7CA93C",
"f 	c #58852C",
"g 	c #3C6E12",
"h 	c #587C30",
"i 	c #939885",
"j 	c #8AA565",
"k 	c #E6F0CD",
"l 	c #DDF0AD",
"m 	c #9ACA42",
"n 	c #69AB21",
"o 	c #529616",
"p 	c #548F1C",
"q 	c #B0BF9C",
"r 	c #233216",
"s 	c #67883A",
"t 	c #A7CB5E",
"u 	c #AFD950",
"v 	c #93CE30",
"w 	c #76C21B",
"x 	c #65B617",
"y 	c #67AF19",
"z 	c #D9E3C3",
"A 	c #44671F",
"B 	c #69A12A",
"C 	c #7ABD21",
"D 	c #88CB22",
"E 	c #7CCA19",
"F 	c #9ED934",
"G 	c #E6EDD5",
"H 	c #727C72",
"I 	c #304221",
"J 	c #4F831D",
"K 	c #9CE62A",
"L 	c #A9EC31",
"M 	c #E6F8B4",
"N 	c #DBE0D2",
"O 	c #5C6E49",
"P 	c #427C12",
"Q 	c #58A514",
"R 	c #9AE126",
"S 	c #D6F875",
"T 	c #F3FAE5",
"U 	c #B0B4AF",
"V 	c #7C8A5E",
"W 	c #589A19",
"X 	c #CBEB80",
"Y 	c #D5D9CE",
"Z 	c #A5AD9A",
"` 	c #CDD5BD",
" .	c #E8EDDA",
"..	c #E0E5D7",
"+.	c #B6B9B2",
"@.	c #928E91",
"#.	c #544B4C",
"$.	c #5F5658",
"%.	c #261D20",
"&.	c #38282D",
"*.	c #422331",
"=.	c #4D2D3B",
"-.	c #7E5D6B",
";.	c #79485E",
">.	c #934D6F",
",.	c #7F3556",
"'.	c #6B2843",
").	c #9D738D",
"!.	c #936179",
"~.	c #E8C9DB",
"{.	c #E5B2D0",
"].	c #BD518E",
"^.	c #9C2C5E",
"/.	c #871E49",
"(.	c #9E3F6C",
"_.	c #9B9298",
":.	c #38232D",
"<.	c #B980A1",
"[.	c #F6DAEC",
"}.	c #F5C0E4",
"|.	c #D958A7",
"1.	c #C22877",
"2.	c #B22665",
"3.	c #A62A62",
"4.	c #C7ADBB",
"5.	c #A14D79",
"6.	c #DA79B5",
"7.	c #E368B9",
"8.	c #DB42A1",
"9.	c #C62470",
"0.	c #BF2673",
"a.	c #EBD2E2",
"b.	c #802F54",
"c.	c #B73B79",
"d.	c #CF398E",
"e.	c #DA3293",
"f.	c #DA2A8B",
"g.	c #D82887",
"h.	c #ECDCE6",
"i.	c #58303F",
"j.	c #6A2140",
"k.	c #AD235D",
"l.	c #EE3BA3",
"m.	c #F144B1",
"n.	c #FAC5EA",
"o.	c #D4CDD2",
"p.	c #886171",
"q.	c #77264A",
"r.	c #951E4D",
"s.	c #B92065",
"t.	c #D02580",
"u.	c #EA36A3",
"v.	c #FA90DB",
"w.	c #FBECF5",
"x.	c #A37990",
"y.	c #CF3088",
"z.	c #F29CD3",
"A.	c #C8C3C6",
"B.	c #AFA4A9",
"C.	c #DCCBD5",
"D.	c #DCD4D8",
"    . + @ @ # $     ",
"  # % & * * = + -   ",
". * * @ ; > , ' # . ",
"+ % + ) ! ~ @ > ; . ",
"= * - { ] - + @ @ ^ ",
"* * + . $ - + + + ] ",
"@ * @ + # # # # - { ",
"~ , , @ + + . $ / ] ",
"$ + > > ; + - ) ( ! ",
"  . ~ ; ; + _ : )   ",
"    . $ ) { / !     ",
"    ) # < [ } ]     ",
"  . | 1 2 2 3 4 5   ",
") | 2 6 7 8 9 0 a _ ",
"# 1 b c d e f g h i ",
", | j k l m n o p q ",
"= r s t u v w x y z ",
"< r A B C D E E F G ",
"H I 9 J y E K L M N ",
"] O g P Q x R S T U ",
"  ) V f W C X T Y   ",
"    ) Z `  ...+.    ",
"    @.- #.$.^ )     ",
"  $ , %.&.*.=.-.@.  ",
") ' &.;.>.,.'.'.)._ ",
"- %.!.~.{.].^./.(._.",
"@ :.<.[.}.|.1.2.3.4.",
"' *.5.6.7.8.1.9.0.a.",
"#.*.b.c.d.e.f.g.8.h.",
"! i.j.k.1.g.l.m.n.o.",
") p.q.r.s.t.u.v.w.{ ",
"  ) x.(.2.y.z.w.A.  ",
"    ) B.C.[.D.{     "};
